<svg width="30" height="30" viewBox="0 0 30 30" fill="none" xmlns="http://www.w3.org/2000/svg">
<g clip-path="url(#clip0_6_1677)">
<path d="M14.3402 9.914V1.29785C9.5817 1.29785 5.72412 5.15543 5.72412 9.914C5.72412 14.6726 9.5817 18.5302 14.3403 18.5302C17.1133 18.5302 19.5791 17.2193 21.1551 15.1844L21.1559 15.185C22.2844 13.728 22.9564 11.8996 22.9564 9.914H14.3402Z" fill="#FF4C4C"/>
<path d="M20.2648 9.91406C20.2648 11.3068 19.934 12.6221 19.3472 13.7863C18.1222 16.2167 15.7805 17.9878 12.9958 18.4251C13.3156 18.4753 13.6412 18.5077 13.9716 18.5218C13.9912 18.5227 14.0108 18.5234 14.0304 18.5241C14.1333 18.5278 14.2364 18.5302 14.3402 18.5302C14.4213 18.5302 14.5022 18.5289 14.5828 18.5266C14.6085 18.5259 14.634 18.5246 14.6596 18.5237C14.7148 18.5217 14.7698 18.5194 14.8247 18.5164C14.8544 18.5147 14.884 18.5127 14.9137 18.5108C14.9647 18.5074 15.0157 18.5037 15.0665 18.4995C15.0966 18.4969 15.1266 18.4943 15.1565 18.4915C15.2081 18.4866 15.2596 18.4812 15.3109 18.4755C15.3388 18.4724 15.3666 18.4693 15.3944 18.4659C15.4515 18.459 15.5084 18.4512 15.5652 18.4431C15.5865 18.4401 15.6078 18.4374 15.6291 18.4342C15.7877 18.4104 15.9449 18.3823 16.1006 18.35C16.115 18.347 16.1293 18.3437 16.1437 18.3406C16.2068 18.3271 16.2698 18.3131 16.3324 18.2983C16.352 18.2937 16.3714 18.2887 16.3909 18.284C16.4493 18.2698 16.5074 18.255 16.5653 18.2395C16.5845 18.2344 16.6037 18.2292 16.6229 18.2239C16.6833 18.2074 16.7435 18.1901 16.8034 18.1723C16.8183 18.1678 16.8333 18.1635 16.8482 18.159C16.9193 18.1373 16.9902 18.1149 17.0606 18.0915C17.0635 18.0905 17.0663 18.0896 17.0692 18.0887C17.302 18.011 17.5303 17.9236 17.7537 17.827C17.7545 17.8266 17.7554 17.8263 17.7562 17.8259C17.8298 17.7941 17.9028 17.7612 17.9753 17.7274C17.9766 17.7268 17.9779 17.7262 17.9792 17.7256C19.2305 17.1412 20.3182 16.2649 21.155 15.1845L21.1558 15.1851C21.2943 15.0063 21.4258 14.8218 21.5502 14.6321C21.5538 14.6268 21.5573 14.6215 21.5607 14.6162C21.5887 14.5733 21.6163 14.5301 21.6436 14.4867C21.6486 14.4787 21.6536 14.4707 21.6586 14.4626C21.6857 14.4192 21.7125 14.3755 21.7388 14.3315C21.7417 14.3268 21.7444 14.322 21.7473 14.3171C21.8589 14.1299 21.9634 13.9382 22.0608 13.7422C22.0671 13.7295 22.0735 13.7167 22.0798 13.704C22.0996 13.6635 22.1191 13.6228 22.1383 13.5819C22.1459 13.5658 22.1534 13.5497 22.1609 13.5336C22.1794 13.4936 22.1978 13.4535 22.2158 13.4132C22.2228 13.3974 22.2296 13.3815 22.2366 13.3656C22.2955 13.231 22.351 13.0946 22.4033 12.9565C22.4095 12.9399 22.416 12.9234 22.4221 12.9069C22.4357 12.8702 22.4488 12.8332 22.4619 12.7963C22.4705 12.7722 22.479 12.7482 22.4874 12.724C22.4995 12.6888 22.5114 12.6536 22.523 12.6182C22.5318 12.5917 22.5404 12.5651 22.5489 12.5385C22.5598 12.5044 22.5707 12.4702 22.5811 12.4358C22.5899 12.407 22.5984 12.378 22.607 12.349C22.6166 12.3161 22.6264 12.2833 22.6358 12.2502C22.646 12.2136 22.6557 12.1769 22.6655 12.1401C22.6781 12.0929 22.6903 12.0456 22.7021 11.9981C22.7116 11.9599 22.7211 11.9218 22.7301 11.8834C22.7369 11.8541 22.7433 11.8246 22.7499 11.7953C22.7577 11.7599 22.7656 11.7245 22.773 11.689C22.7792 11.6594 22.7852 11.6297 22.7911 11.6C22.7983 11.5637 22.8053 11.5272 22.8121 11.4906C22.8173 11.4621 22.8226 11.4335 22.8276 11.4049C22.8346 11.3648 22.8411 11.3246 22.8476 11.2843C22.8516 11.259 22.8559 11.2336 22.8597 11.2082C22.8688 11.1476 22.8773 11.0869 22.8852 11.0259C22.8869 11.0128 22.8885 10.9996 22.8901 10.9864C22.8973 10.929 22.9039 10.8713 22.9099 10.8135C22.9123 10.7898 22.9144 10.766 22.9166 10.7422C22.9209 10.6983 22.9249 10.6543 22.9284 10.6102C22.9304 10.5841 22.9323 10.558 22.9342 10.5319C22.9372 10.4891 22.9399 10.4462 22.9423 10.4033C22.9438 10.3774 22.9452 10.3515 22.9464 10.3255C22.9486 10.2795 22.9503 10.2333 22.9517 10.1872C22.9524 10.1648 22.9533 10.1425 22.9538 10.12C22.9554 10.0522 22.9564 9.98432 22.9564 9.91617C22.9564 9.91553 22.9564 9.91488 22.9564 9.91424H20.2648V9.91406Z" fill="#F33939"/>
<path d="M22.9562 9.91406H14.3401L21.1557 15.1851C22.2842 13.728 22.9562 11.8996 22.9562 9.91406Z" fill="#FFB125"/>
<path d="M20.2648 9.91406C20.2648 11.3068 19.934 12.6221 19.3472 13.7863L21.1558 15.1851C21.2943 15.0063 21.4258 14.8218 21.5502 14.6321C21.5537 14.6268 21.5572 14.6215 21.5607 14.6162C21.5887 14.5733 21.6162 14.5301 21.6435 14.4867C21.6486 14.4787 21.6535 14.4707 21.6586 14.4626C21.6856 14.4192 21.7124 14.3755 21.7387 14.3315C21.7416 14.3268 21.7444 14.322 21.7472 14.3171C21.8588 14.1299 21.9633 13.9382 22.0607 13.7422C22.067 13.7295 22.0734 13.7167 22.0797 13.704C22.0996 13.6635 22.1191 13.6228 22.1383 13.582C22.1458 13.5659 22.1533 13.5497 22.1608 13.5336C22.1794 13.4937 22.1978 13.4535 22.2157 13.4132C22.2227 13.3975 22.2296 13.3815 22.2365 13.3657C22.2954 13.2311 22.351 13.0946 22.4032 12.9565C22.4095 12.94 22.4159 12.9235 22.4221 12.9069C22.4356 12.8702 22.4488 12.8333 22.4618 12.7963C22.4704 12.7723 22.4789 12.7482 22.4873 12.724C22.4995 12.6889 22.5112 12.6536 22.5229 12.6183C22.5317 12.5917 22.5403 12.5652 22.5488 12.5386C22.5597 12.5044 22.5706 12.4702 22.5811 12.4359C22.5899 12.4071 22.5984 12.3781 22.6069 12.3491C22.6165 12.3162 22.6264 12.2834 22.6356 12.2503C22.6459 12.2137 22.6556 12.177 22.6654 12.1402C22.678 12.093 22.6902 12.0456 22.702 11.9981C22.7114 11.96 22.7209 11.9218 22.73 11.8835C22.7368 11.8542 22.7432 11.8247 22.7498 11.7953C22.7576 11.7599 22.7655 11.7246 22.7729 11.689C22.7791 11.6595 22.785 11.6297 22.791 11.6001C22.7982 11.5637 22.8051 11.5273 22.8119 11.4907C22.8172 11.4621 22.8225 11.4336 22.8275 11.4049C22.8344 11.3648 22.841 11.3246 22.8474 11.2844C22.8515 11.259 22.8558 11.2337 22.8596 11.2082C22.8687 11.1476 22.8772 11.0869 22.8851 11.0259C22.8868 11.0128 22.8883 10.9996 22.8899 10.9865C22.8971 10.929 22.9037 10.8714 22.9097 10.8136C22.9122 10.7899 22.9142 10.7661 22.9165 10.7423C22.9207 10.6983 22.9247 10.6543 22.9282 10.6102C22.9304 10.5841 22.9322 10.5581 22.934 10.5319C22.9371 10.4892 22.9398 10.4463 22.9422 10.4033C22.9437 10.3774 22.9451 10.3515 22.9463 10.3256C22.9485 10.2796 22.9501 10.2334 22.9516 10.1872C22.9523 10.1648 22.9531 10.1425 22.9537 10.1201C22.9553 10.0523 22.9563 9.98438 22.9563 9.91623C22.9563 9.91559 22.9563 9.91494 22.9563 9.9143H20.2648V9.91406Z" fill="#FF901D"/>
<path d="M2.38525 28.6051V18.594C2.38525 18.3781 2.56027 18.2031 2.77613 18.2031H6.39529C6.61121 18.2031 6.78617 18.3781 6.78617 18.594V28.6051H2.38525Z" fill="#FFB125"/>
<path d="M23.2139 28.605V16.554C23.2139 16.338 23.3889 16.1631 23.6047 16.1631H27.2239C27.4398 16.1631 27.6148 16.3381 27.6148 16.554V28.605H23.2139Z" fill="#61AFF6"/>
<path d="M27.2239 16.1631H24.5859C24.8018 16.1631 24.9768 16.3381 24.9768 16.554V28.605H27.6148V16.554C27.6148 16.3381 27.4398 16.1631 27.2239 16.1631Z" fill="#55A2EF"/>
<path d="M16.271 28.605V20.4697C16.271 20.2538 16.446 20.0789 16.6619 20.0789H20.281C20.497 20.0789 20.6719 20.2539 20.6719 20.4697V28.605H16.271Z" fill="#21D8DE"/>
<path d="M20.2809 20.0789H18.0339V28.605H20.6718V20.4697C20.6718 20.2539 20.4969 20.0789 20.2809 20.0789Z" fill="#10C4C4"/>
<path d="M6.39545 18.2031H4.14844V28.6051H6.78639V18.594C6.78639 18.3781 6.61137 18.2031 6.39545 18.2031Z" fill="#FF901D"/>
<path d="M9.32812 28.6051V23.6028C9.32812 23.3869 9.50314 23.2119 9.719 23.2119H13.3381C13.554 23.2119 13.729 23.3869 13.729 23.6028V28.6051H9.32812Z" fill="#FF6D3A"/>
<path d="M13.3381 23.2119H11.0911V28.6052H13.729V23.6029C13.7291 23.3869 13.5541 23.2119 13.3381 23.2119Z" fill="#ED5729"/>
<path d="M24.2586 8.05207C23.9913 3.74854 20.5653 0.300996 16.271 0V8.05207H24.2586Z" fill="#21D8DE"/>
<path d="M16.271 0V0.612656C19.2599 1.83053 21.4111 4.67812 21.6207 8.05207H24.2587C23.9913 3.74854 20.5653 0.300996 16.271 0Z" fill="#10C4C4"/>
<path d="M28.8758 30.0001H1.12406C0.920742 30.0001 0.755859 29.8353 0.755859 29.6319V28.773C0.755859 28.5697 0.920684 28.4048 1.12406 28.4048H28.8758C29.0791 28.4048 29.244 28.5696 29.244 28.773V29.6319C29.244 29.8353 29.0791 30.0001 28.8758 30.0001Z" fill="#998675"/>
<path d="M28.8758 29.3155H1.12406C0.920742 29.3155 0.755859 29.1506 0.755859 28.9473V29.6318C0.755859 29.8351 0.920684 30 1.12406 30H28.8758C29.0791 30 29.2439 29.8352 29.2439 29.6318V28.9473C29.244 29.1506 29.0791 29.3155 28.8758 29.3155Z" fill="#736357"/>
</g>
<defs>
<clipPath id="clip0_6_1677">
<rect width="30" height="30" fill="white"/>
</clipPath>
</defs>
</svg>
