<svg width="30" height="31" viewBox="0 0 30 31" fill="none" xmlns="http://www.w3.org/2000/svg">
<path d="M10.3125 15.1682C12.3807 15.1682 14.0625 13.4864 14.0625 11.4182C14.0625 9.35004 12.3807 7.66821 10.3125 7.66821C8.24432 7.66821 6.5625 9.35004 6.5625 11.4182C6.5625 13.4864 8.24432 15.1682 10.3125 15.1682Z" fill="#FFE082"/>
<path d="M13.97 16.5194C13.6789 16.2686 13.2632 16.2237 12.9236 16.4004C11.3232 17.2409 9.30176 17.2409 7.70142 16.4004C7.36176 16.2237 6.94519 16.2686 6.65497 16.5194C5.40436 17.5942 4.6875 19.1516 4.6875 20.7931V21.7306C4.6875 22.2488 5.10681 22.6681 5.625 22.6681H15C15.5182 22.6681 15.9375 22.2488 15.9375 21.7306V20.7931C15.9375 19.1516 15.2206 17.5942 13.97 16.5194Z" fill="#42A5F5"/>
<g opacity="0.1">
<path d="M14.0625 11.4182C14.0625 13.4901 12.3843 15.1682 10.3125 15.1682V7.66821C12.3843 7.66821 14.0625 9.34637 14.0625 11.4182Z" fill="black"/>
<path d="M15.9375 20.7931V21.7306C15.9375 22.2461 15.5154 22.6681 15 22.6681H10.3125V17.0248C11.2216 17.0248 12.1317 16.8179 12.9282 16.3959C13.266 16.2274 13.678 16.2649 13.9691 16.5185C15.2252 17.5961 15.9375 19.1525 15.9375 20.7931Z" fill="black"/>
</g>
<path d="M28.7878 14.5053L23.1628 8.88033C22.8946 8.61208 22.4908 8.53152 22.1411 8.67709C21.7905 8.82174 21.5625 9.16415 21.5625 9.54318V12.3557H18.75C18.2318 12.3557 17.8125 12.775 17.8125 13.2932V17.0432C17.8125 17.5614 18.2318 17.9807 18.75 17.9807H21.5625V20.7932C21.5625 21.1722 21.7905 21.5146 22.1411 21.6593C22.2574 21.7078 22.3792 21.7307 22.5 21.7307C22.7435 21.7307 22.9834 21.6355 23.1628 21.456L28.7878 15.831C29.1541 15.4648 29.1541 14.8715 28.7878 14.5053Z" fill="#EF5350"/>
<path opacity="0.1" d="M28.7906 15.8337L23.4375 21.1868V9.14941L28.7906 14.5025C29.1559 14.8678 29.1559 15.4684 28.7906 15.8337Z" fill="black"/>
<path d="M15 29.2307H4.6875C2.61932 29.2307 0.9375 27.5489 0.9375 25.4807V4.85571C0.9375 2.78754 2.61932 1.10571 4.6875 1.10571H15C15.5182 1.10571 15.9375 1.52502 15.9375 2.04321C15.9375 2.5614 15.5182 2.98071 15 2.98071H4.6875C3.65387 2.98071 2.8125 3.82208 2.8125 4.85571V25.4807C2.8125 26.5143 3.65387 27.3557 4.6875 27.3557H15C15.5182 27.3557 15.9375 27.775 15.9375 28.2932C15.9375 28.8114 15.5182 29.2307 15 29.2307Z" fill="#FFCA28"/>
<g opacity="0.1">
<path d="M15.9375 28.2932C15.9375 28.8087 15.5154 29.2307 15 29.2307H10.3125V27.3557H15C15.5154 27.3557 15.9375 27.7778 15.9375 28.2932Z" fill="black"/>
<path d="M15 2.98071H10.3125V1.10571H15C15.5154 1.10571 15.9375 1.52777 15.9375 2.04321C15.9375 2.55865 15.5154 2.98071 15 2.98071Z" fill="black"/>
</g>
</svg>
