<svg width="30" height="30" viewBox="0 0 30 30" fill="none" xmlns="http://www.w3.org/2000/svg">
<g clip-path="url(#clip0_6_1630)">
<mask id="mask0_6_1630" style="mask-type:luminance" maskUnits="userSpaceOnUse" x="0" y="0" width="30" height="30">
<path d="M0 1.90735e-06H30V30H0V1.90735e-06Z" fill="white"/>
</mask>
<g mask="url(#mask0_6_1630)">
<path d="M0.2229 4.72571C0.2229 2.09257 2.37646 -0.0376062 5.01833 0.00042057C7.57741 0.0372171 9.65825 2.13593 9.67448 4.69519C9.68351 6.12839 9.05433 7.41476 8.0546 8.28728C7.94907 8.37933 7.96431 8.54737 8.08483 8.61868L8.97528 9.14556C9.11925 9.23075 9.05884 9.45142 8.89155 9.45142L4.85925 9.45042C2.29056 9.40267 0.2229 7.30577 0.2229 4.72571Z" fill="#7ACAA6"/>
<path d="M8.9753 9.14556L8.08485 8.61868C7.96497 8.54778 7.94833 8.37997 8.05327 8.28845C9.06442 7.40661 9.69688 6.10161 9.67397 4.64931C9.63425 2.13722 7.60104 0.0751276 5.08972 0.00194454C4.73353 -0.00842667 4.38606 0.0206938 4.05103 0.0851469C6.22181 0.501222 7.87608 2.41466 7.8905 4.69519C7.89747 5.79962 7.52552 6.81681 6.89698 7.62464C6.51747 8.11249 6.64081 8.81978 7.17272 9.13454L7.19136 9.14556C7.33374 9.22976 7.27597 9.44626 7.1129 9.45095L8.89157 9.45142C9.05886 9.45142 9.11927 9.23075 8.9753 9.14556Z" fill="#57BE92"/>
<path d="M23.2496 17.1536H12.5289C9.8513 17.1536 8.38605 14.0331 10.0962 11.9728L10.1913 11.8582C10.9447 10.9504 11.3571 9.80796 11.3571 8.62829V6.56093C11.3571 2.93737 14.2945 -4.76837e-05 17.9181 -4.76837e-05C21.5416 -4.76837e-05 24.4791 2.93737 24.4791 6.56093V8.69808C24.4791 9.89005 24.9001 11.0438 25.6679 11.9555C27.3994 14.0117 25.9377 17.1536 23.2496 17.1536Z" fill="#C59191"/>
<path d="M28.8849 22.4667V29.5542H6.89355V22.52C6.89355 20.9274 7.84799 19.4901 9.31523 18.8726L12.8654 17.3292L14.0607 16.8095C14.9677 16.4151 15.5542 15.5204 15.5542 14.5313V14.0726H20.2236V14.5079C20.2236 15.5011 20.816 16.3993 21.7294 16.7907L26.5312 18.8491C27.962 19.4831 28.8849 20.9011 28.8849 22.4667Z" fill="white"/>
<path d="M12.8652 19.0189C14.0769 19.381 15.8603 19.7671 18.0342 19.7291C20.0739 19.6935 21.7483 19.2968 22.9133 18.9248L23.4922 17.5462L21.7293 16.7907C20.816 16.3993 20.2239 15.5012 20.2239 14.5076V14.0726H15.5546V14.5313C15.5546 15.5202 14.968 16.4149 14.0611 16.8092L12.6333 17.43L12.8652 19.0189Z" fill="#FFCEBF"/>
<path d="M26.531 18.8487L22.914 17.2984L22.9133 17.2984V29.554H28.8851V22.4666C28.8851 20.9012 27.9622 19.4829 26.531 18.8487Z" fill="#8795DE"/>
<path d="M12.8654 17.3292V29.5542H6.89355V22.52C6.89355 20.9274 7.84799 19.4901 9.31523 18.8726L12.8654 17.3292Z" fill="#8795DE"/>
<path d="M19.5079 16.6355C20.045 16.6355 20.5569 16.5276 21.0236 16.333C20.5231 15.871 20.224 15.2135 20.224 14.5077V14.0727H15.5546V14.5313C15.5546 14.8886 15.4777 15.2333 15.3372 15.5469C16.0442 16.2209 17.0008 16.6355 18.0547 16.6355H19.5079Z" fill="#FFB09E"/>
<path d="M22.5561 7.04852V10.9113C22.5561 13.0874 20.792 14.8516 18.6158 14.8516H17.1627C14.9866 14.8516 13.2224 13.0874 13.2224 10.9113V7.04852C13.2224 5.63283 14.37 4.48516 15.7857 4.48516H19.9927C21.4084 4.48516 22.5561 5.63283 22.5561 7.04852Z" fill="#FFCEBF"/>
<path d="M22.556 9.05806C22.5542 9.06339 22.5521 9.06855 22.5505 9.07399C22.408 9.56589 22.0343 10.4951 21.1309 11.1917C20.7102 11.5161 20.2304 11.7505 19.7047 11.8884C19.4664 11.9509 19.3241 12.1948 19.3865 12.433C19.4391 12.6333 19.6198 12.7659 19.8177 12.7659C19.8551 12.7659 19.8932 12.7611 19.9311 12.7512C20.5729 12.5828 21.1597 12.2957 21.6755 11.898C22.0317 11.6234 22.32 11.32 22.5533 11.0149C22.5543 10.9803 22.556 10.9459 22.556 10.9111V9.05806Z" fill="#7A6D79"/>
<path d="M19.2156 13.1213H18.1705C17.6947 13.1213 17.3091 12.7357 17.3091 12.26C17.3091 11.7843 17.6947 11.3986 18.1705 11.3986H19.2156C19.6913 11.3986 20.077 11.7843 20.077 12.26C20.077 12.7357 19.6913 13.1213 19.2156 13.1213Z" fill="#685E68"/>
<path d="M18.8204 3.46281C18.9205 2.2007 20.1288 1.3631 21.2852 0.929273C23.1983 2.0756 24.479 4.16863 24.479 6.56107V7.01212C24.3733 7.03433 24.2681 7.05378 24.164 7.06925C23.5269 7.16441 22.9843 7.12328 22.6137 7.06925C20.2253 6.75109 18.6995 4.98712 18.8204 3.46281Z" fill="#B98080"/>
<path d="M17.9179 -6.81877e-05C19.3996 -6.81877e-05 20.7665 0.491299 21.8648 1.31976C21.3169 2.27314 20.0588 4.1581 17.6996 5.55356C15.9483 6.58956 14.2969 6.93767 13.2799 7.06909H11.3569V6.56091C11.3569 2.93735 14.2944 -6.81877e-05 17.9179 -6.81877e-05Z" fill="#C59191"/>
<path d="M25.2523 29.554H10.9756L10.1882 22.1257C10.1323 21.5988 10.5454 21.1397 11.0752 21.1397H25.1527C25.6825 21.1397 26.0956 21.5988 26.0397 22.1257L25.2523 29.554Z" fill="#EFEDEF"/>
<path d="M25.1526 21.1397H23.3687C23.8985 21.1397 24.3115 21.5988 24.2556 22.1257L23.4682 29.554H25.2521L26.0396 22.1257C26.0954 21.5988 25.6824 21.1397 25.1526 21.1397Z" fill="#E5E1E5"/>
<path d="M29.5605 30H0.439453C0.196699 30 0 29.8032 0 29.5605C0 29.3179 0.196699 29.1211 0.439453 29.1211H29.5605C29.8033 29.1211 30 29.3179 30 29.5605C30 29.8032 29.8033 30 29.5605 30Z" fill="#C9BFC8"/>
<path d="M19.3627 25.347C19.3627 26.0367 18.8036 26.5957 18.114 26.5957C17.4243 26.5957 16.8652 26.0367 16.8652 25.347C16.8652 24.6572 17.4243 24.0982 18.114 24.0982C18.8036 24.0982 19.3627 24.6572 19.3627 25.347Z" fill="#C9BFC8"/>
<path d="M3.61072 4.72567C3.61072 4.972 3.41109 5.17163 3.16477 5.17163C2.91844 5.17163 2.71875 4.972 2.71875 4.72567C2.71875 4.47935 2.91844 4.27966 3.16477 4.27966C3.41109 4.27966 3.61072 4.47935 3.61072 4.72567Z" fill="white"/>
<path d="M5.3949 4.72567C5.3949 4.972 5.19521 5.17163 4.94895 5.17163C4.70262 5.17163 4.50293 4.972 4.50293 4.72567C4.50293 4.47935 4.70262 4.27966 4.94895 4.27966C5.19521 4.27966 5.3949 4.47935 5.3949 4.72567Z" fill="white"/>
<path d="M7.17865 4.72567C7.17865 4.972 6.97896 5.17163 6.73264 5.17163C6.48637 5.17163 6.28662 4.972 6.28662 4.72567C6.28662 4.47935 6.48637 4.27966 6.73264 4.27966C6.97896 4.27966 7.17865 4.47935 7.17865 4.72567Z" fill="white"/>
</g>
</g>
<defs>
<clipPath id="clip0_6_1630">
<rect width="30" height="30" fill="white"/>
</clipPath>
</defs>
</svg>
