<svg width="30" height="30" viewBox="0 0 30 30" fill="none" xmlns="http://www.w3.org/2000/svg">
<rect x="0.10083" width="29.0292" height="29.0292" rx="14.5146" fill="#368AAF"/>
<g clip-path="url(#clip0_223_5280)">
<path d="M14.6155 7.71094H9.3237C8.92271 7.71094 8.53815 7.87023 8.2546 8.15377C7.97106 8.43732 7.81177 8.82188 7.81177 9.22287V19.8064C7.81177 20.2074 7.97106 20.592 8.2546 20.8755C8.53815 21.1591 8.92271 21.3184 9.3237 21.3184H19.9073C20.3082 21.3184 20.6928 21.1591 20.9764 20.8755C21.2599 20.592 21.4192 20.2074 21.4192 19.8064V14.5147" stroke="white" stroke-width="1.81432" stroke-linecap="round" stroke-linejoin="round"/>
<path d="M19.435 7.42771C19.7357 7.12696 20.1436 6.95801 20.5689 6.95801C20.9942 6.95801 21.4021 7.12696 21.7029 7.42771C22.0036 7.72845 22.1726 8.13634 22.1726 8.56166C22.1726 8.98697 22.0036 9.39487 21.7029 9.69561L14.6157 16.7828L11.5918 17.5388L12.3478 14.5149L19.435 7.42771Z" stroke="white" stroke-width="1.81432" stroke-linecap="round" stroke-linejoin="round"/>
</g>
<defs>
<clipPath id="clip0_223_5280">
<rect width="18.1432" height="18.1432" fill="white" transform="translate(5.5437 5.44287)"/>
</clipPath>
</defs>
</svg>
