<svg width="28" height="27" viewBox="0 0 28 27" fill="none" xmlns="http://www.w3.org/2000/svg">
<path fill-rule="evenodd" clip-rule="evenodd" d="M6.49997 0.875C7.12129 0.875 7.62497 1.37868 7.62497 2V4.50144C11.8666 4.1237 16.1334 4.12371 20.375 4.50145V2C20.375 1.37868 20.8787 0.875 21.5 0.875C22.1213 0.875 22.625 1.37868 22.625 2V4.72465C24.8645 5.04132 26.6338 6.8127 26.9333 9.07225L27.0632 10.0517C27.6092 14.1712 27.562 18.3477 26.9231 22.4538C26.6066 24.4878 24.9541 26.0502 22.9055 26.2522L21.116 26.4287C16.3834 26.8954 11.6164 26.8954 6.88386 26.4287L5.09435 26.2522C3.04574 26.0502 1.39325 24.4879 1.07674 22.4538C0.4378 18.3477 0.390639 14.1712 0.936692 10.0517L1.06652 9.07226C1.36603 6.81268 3.13536 5.04127 5.37497 4.72464V2C5.37497 1.37868 5.87865 0.875 6.49997 0.875ZM7.16772 6.80421C11.7115 6.35612 16.2884 6.35612 20.8321 6.80421L22.1903 6.93814C23.4904 7.06636 24.5312 8.07281 24.7028 9.36791L24.8327 10.3473C24.878 10.6895 24.9191 11.0321 24.9558 11.375H3.04406C3.08079 11.0321 3.12183 10.6895 3.16718 10.3473L3.29701 9.36792C3.46868 8.07281 4.50942 7.06636 5.80954 6.93814L7.16772 6.80421ZM2.86522 13.625C2.71795 16.4571 2.86304 19.2998 3.29998 22.1078C3.45874 23.1281 4.28761 23.9117 5.31517 24.0131L7.10467 24.1895C11.6904 24.6418 16.3095 24.6418 20.8952 24.1895L22.6847 24.0131C23.7122 23.9117 24.5411 23.1281 24.6999 22.1078C25.1368 19.2998 25.2819 16.4571 25.1346 13.625H2.86522Z" fill="#FCFCFC"/>
</svg>
