<svg width="30" height="30" viewBox="0 0 30 30" fill="none" xmlns="http://www.w3.org/2000/svg">
<g clip-path="url(#clip0_6_1567)">
<mask id="mask0_6_1567" style="mask-type:luminance" maskUnits="userSpaceOnUse" x="0" y="0" width="30" height="30">
<path d="M0 3.8147e-06H30V30H0V3.8147e-06Z" fill="white"/>
</mask>
<g mask="url(#mask0_6_1567)">
<path d="M15 9.74707C15 9.74707 14.2728 3.45709 6.54712 0.439513V9.74707H15Z" fill="#F0F5FA"/>
<path d="M15 9.74707C15 9.74707 15.7272 3.45709 23.4529 0.439513V9.74707H15Z" fill="#E4ECF2"/>
<path d="M15.0931 9.74708C11.7198 3.71966 3.6377 1.86751 3.6377 1.86751L2.03247 3.49864L13.1407 10.8884L15.0931 9.74708Z" fill="#E4ECF2"/>
<path d="M14.907 9.74708C18.2803 3.71966 26.3624 1.86751 26.3624 1.86751L27.9676 3.49864L16.8594 10.8884L14.907 9.74708Z" fill="#F0F5FA"/>
<path d="M29.174 22.6973L17.8459 29.0694C17.4552 29.2891 16.9727 29.0069 16.9727 28.5587L16.3867 19.2481L16.9727 10.0897C16.9727 9.87807 17.0868 9.68283 17.2713 9.57901L28.5994 3.20694C28.9901 2.98727 29.4726 3.26951 29.4726 3.71764V22.1866C29.4726 22.3983 29.3584 22.5936 29.174 22.6973Z" fill="#A7C957"/>
<path d="M28.5995 3.20694L27.1289 4.03411V22.1866C27.1289 22.3983 27.0147 22.5935 26.8302 22.6973L16.9727 28.2422V28.5587C16.9727 29.0068 17.4553 29.2891 17.8459 29.0694L29.174 22.6973C29.3585 22.5935 29.4726 22.3983 29.4726 22.1866V3.71765C29.4726 3.26946 28.9901 2.98728 28.5995 3.20694Z" fill="#A7C957"/>
<path d="M12.1542 29.0694L0.826055 22.6973C0.641543 22.5936 0.527344 22.3983 0.527344 22.1866V3.71764C0.527344 3.26951 1.00998 2.98727 1.40057 3.20694L12.7287 9.57901C12.9132 9.68283 13.0274 9.87807 13.0274 10.0897V28.5587C13.0274 29.0069 12.5447 29.2891 12.1542 29.0694Z" fill="#A7C957"/>
<path d="M12.7287 9.57901L1.40057 3.20694C1.00992 2.98728 0.527344 3.26946 0.527344 3.71765V4.03411L10.3849 9.57901C10.5694 9.68278 10.6836 9.87808 10.6836 10.0897V28.2422L12.1542 29.0694C12.5447 29.2891 13.0274 29.0068 13.0274 28.5587L13.6133 19.2774L13.0274 10.0897C13.0274 9.87808 12.9132 9.68278 12.7287 9.57901Z" fill="#A7C957"/>
<path d="M27.3243 10.8884L19.1208 15.5759V12.7429L27.3243 8.05536V10.8884Z" fill="#F8F8F8"/>
<path d="M16.3867 29.5605H13.6133C13.2897 29.5605 13.0273 29.2982 13.0273 28.9746V10.333C13.0273 10.0093 13.2897 9.74701 13.6133 9.74701H16.3867C16.7103 9.74701 16.9726 10.0093 16.9726 10.333V28.9746C16.9726 29.2982 16.7103 29.5605 16.3867 29.5605Z" fill="#A7C957"/>
<path d="M16.3867 9.74701H14.3945C14.7181 9.74701 14.9805 10.0094 14.9805 10.333V28.9746C14.9805 29.2982 14.7181 29.5605 14.3945 29.5605H16.3867C16.7103 29.5605 16.9727 29.2982 16.9727 28.9746V10.333C16.9727 10.0094 16.7103 9.74701 16.3867 9.74701Z" fill="#A7C957"/>
<path d="M16.9726 13.7441H13.0273V11.791H16.9726V13.7441Z" fill="#FFDA45"/>
<path d="M16.9726 27.5166H13.0273V25.5634H16.9726V27.5166Z" fill="#FFDA45"/>
<path d="M15 9.74707C15 9.74707 14.2728 3.45709 6.54712 0.439513V2.84244" stroke="#060606" stroke-width="0.2" stroke-miterlimit="10" stroke-linecap="round" stroke-linejoin="round"/>
<path d="M15 9.74707C15 9.74707 15.7272 3.45709 23.4529 0.439513V2.8425" stroke="#060606" stroke-width="0.2" stroke-miterlimit="10" stroke-linecap="round" stroke-linejoin="round"/>
<path d="M8.5628 3.78394C5.91864 2.39022 3.63765 1.86751 3.63765 1.86751L2.03247 3.49864" stroke="#060606" stroke-width="0.2" stroke-miterlimit="10" stroke-linecap="round" stroke-linejoin="round"/>
<path d="M15.0931 9.74707C14.0413 7.86773 12.5318 6.39434 10.9521 5.25639" stroke="#060606" stroke-width="0.2" stroke-miterlimit="10" stroke-linecap="round" stroke-linejoin="round"/>
<path d="M14.907 9.74707C18.2803 3.71965 26.3624 1.8675 26.3624 1.8675L27.9676 3.49863" stroke="#060606" stroke-width="0.2" stroke-miterlimit="10" stroke-linecap="round" stroke-linejoin="round"/>
<path d="M16.3867 29.5605H13.6133C13.2897 29.5605 13.0273 29.2982 13.0273 28.9746V10.333C13.0273 10.0093 13.2897 9.74701 13.6133 9.74701H16.3867C16.7103 9.74701 16.9726 10.0093 16.9726 10.333V28.9746C16.9726 29.2982 16.7103 29.5605 16.3867 29.5605Z" stroke="#060606" stroke-width="0.2" stroke-miterlimit="10" stroke-linecap="round" stroke-linejoin="round"/>
<path d="M16.9726 13.7441H13.0273V11.791H16.9726V13.7441Z" stroke="#060606" stroke-width="0.2" stroke-miterlimit="10" stroke-linecap="round" stroke-linejoin="round"/>
<path d="M16.9726 27.5166H13.0273V25.5634H16.9726V27.5166Z" stroke="#060606" stroke-width="0.2" stroke-miterlimit="10" stroke-linecap="round" stroke-linejoin="round"/>
<path d="M15 17.0171V22.2905" stroke="#060606" stroke-width="0.2" stroke-miterlimit="10" stroke-linecap="round" stroke-linejoin="round"/>
<path d="M29.4726 19.8296V22.1867C29.4726 22.3984 29.3584 22.5936 29.174 22.6973L17.8458 29.0694C17.4552 29.2891 16.9727 29.0069 16.9727 28.5587V10.0897C16.9727 9.87807 17.0868 9.68283 17.2713 9.57906L28.5994 3.20699C28.9901 2.98733 29.4726 3.26951 29.4726 3.71764V17.0171" stroke="#060606" stroke-width="0.2" stroke-miterlimit="10" stroke-linecap="round" stroke-linejoin="round"/>
<path d="M12.1542 29.0694L0.826055 22.6973C0.641543 22.5936 0.527344 22.3983 0.527344 22.1866V3.71764C0.527344 3.26951 1.00998 2.98727 1.40057 3.20694L12.7287 9.57901C12.9132 9.68283 13.0274 9.87807 13.0274 10.0897V28.5587C13.0274 29.0069 12.5447 29.2891 12.1542 29.0694Z" stroke="#060606" stroke-width="0.2" stroke-miterlimit="10" stroke-linecap="round" stroke-linejoin="round"/>
<path d="M27.3243 10.8884L19.1208 15.5759V12.7429L27.3243 8.05536V10.8884Z" stroke="#060606" stroke-width="0.2" stroke-miterlimit="10" stroke-linecap="round" stroke-linejoin="round"/>
</g>
</g>
<defs>
<clipPath id="clip0_6_1567">
<rect width="30" height="30" fill="white"/>
</clipPath>
</defs>
</svg>
