<svg width="43" height="43" viewBox="0 0 43 43" fill="none" xmlns="http://www.w3.org/2000/svg">
<rect x="0.34082" y="0.436035" width="41.7017" height="41.7017" rx="20.8508" fill="#0077B6" fill-opacity="0.06"/>
<g clip-path="url(#clip0_6_1488)">
<path d="M12.9484 20.2753C12.9484 20.2753 11.8794 15.3366 11.8794 13.6374C11.8794 9.99163 14.5518 10.0167 14.5518 10.0167L14.5523 10.0162C16.1442 7.01211 22.0345 6.99951 22.0345 6.99951L22.569 8.20641C25.5087 7.15037 29.5173 6.99951 29.5173 6.99951C29.5173 6.99951 30.2856 8.20641 30.5863 10.0167C31.2093 13.7683 30.0518 20.2753 30.0518 20.2753H12.9484Z" fill="#734A3E"/>
<path d="M22.0345 6.99951C22.0345 6.99951 16.1218 6.99951 14.5523 10.0162L14.5518 10.0167C14.5518 10.0167 11.8794 9.99163 11.8794 13.6374C11.8794 15.3366 12.9484 20.2753 12.9484 20.2753H16.3982L19.8966 14.8443C19.8966 14.8443 25.286 11.7265 29.5173 6.99951C29.5173 6.99951 25.5087 7.15037 22.569 8.20641L22.0345 6.99951Z" fill="#623F33"/>
<path d="M32.1808 38.8978L32.1323 38.4048C32.1131 38.2098 31.9575 38.0692 31.7848 38.0909L31.7576 38.0942L31.2881 33.854C31.186 32.9316 30.6238 32.1574 29.8428 31.8634L26.7688 30.7065L26.8452 30.5342L25.6864 29.662C25.4408 29.4771 25.109 29.552 24.9452 29.8294L24.7819 30.1059C24.7338 29.9679 24.7073 29.8188 24.7073 29.6643V27.7181L27.0096 26.635C28.2046 26.0728 28.983 24.7545 28.983 23.2928V22.6894C29.8686 22.6894 30.5865 21.8789 30.5865 20.879C30.5865 20.4019 30.4227 19.9682 30.1556 19.6448C30.4249 17.922 31.0922 13.0619 30.5865 10.017C30.2858 8.20665 29.5175 6.99976 29.5175 6.99976C29.5175 6.99976 25.5089 7.15062 22.5693 8.20665L22.0348 6.99976C22.0348 6.99976 16.1221 6.99976 14.5525 10.0165L14.552 10.017C14.552 10.017 14.5514 10.017 14.5501 10.017C14.5476 10.017 14.5424 10.017 14.535 10.0172C14.5276 10.0174 14.5177 10.0177 14.5057 10.0183C14.4936 10.0189 14.4794 10.0197 14.4631 10.0209C14.455 10.0215 14.4463 10.0222 14.4372 10.023C14.4098 10.0254 14.378 10.0288 14.3423 10.0335C14.3185 10.0367 14.2931 10.0404 14.266 10.0448C14.239 10.0493 14.2104 10.0544 14.1804 10.0604C14.1504 10.0664 14.1191 10.0731 14.0865 10.0809C13.4349 10.2355 12.2939 10.7638 11.9685 12.5683C11.9603 12.6134 11.9527 12.6593 11.9456 12.706C11.9243 12.8462 11.9078 12.9936 11.8967 13.1488C11.8855 13.304 11.8796 13.4667 11.8796 13.6377C11.8796 13.7704 11.8862 13.923 11.8982 14.0913C11.9102 14.2597 11.9278 14.444 11.9498 14.6402C11.9542 14.6795 11.9588 14.7192 11.9635 14.7594C12.0682 15.6432 12.2556 16.7438 12.4392 17.7289C12.4475 17.7737 12.4559 17.8182 12.4642 17.8625C12.589 18.5265 12.71 19.1298 12.7999 19.5671C12.8075 19.6038 12.8148 19.639 12.8219 19.6733C12.5684 19.9934 12.4141 20.4158 12.4141 20.879C12.4141 21.8789 13.132 22.6894 14.0176 22.6894V23.2928C14.0176 24.7544 14.796 26.0728 15.991 26.635L18.2934 27.7182V29.6644C18.2934 29.819 18.2668 29.9681 18.2187 30.106L18.0554 29.8294C17.8917 29.5522 17.5598 29.4772 17.3142 29.6621L16.1555 30.5343L16.2318 30.7066L13.1578 31.8635C12.3768 32.1575 11.8146 32.9317 11.7125 33.854L11.2431 38.0943L11.2159 38.0909C11.0431 38.0693 10.8876 38.2098 10.8683 38.4049L10.8198 38.8979C10.8006 39.0929 10.9251 39.2686 11.0978 39.2902L11.8796 39.3883V40.7929C11.8796 41.4594 12.3582 41.9998 12.9486 41.9998H15.621H27.3796H30.052C30.6424 41.9998 31.121 41.4594 31.121 40.7929V39.3883L31.9028 39.2902C32.0755 39.2685 32.2 39.0928 32.1808 38.8978Z" fill="#F6B47B"/>
<path d="M31.2876 33.854C31.1855 32.9316 30.6233 32.1574 29.8423 31.8634L26.3849 30.5623C25.8815 31.844 23.1032 32.948 23.1032 32.948L22.0343 34.1549C22.0343 34.1596 21.0488 34.1549 20.9653 34.1549L19.8964 32.948C19.8964 32.948 17.1181 31.8441 16.6147 30.5623L13.1573 31.8634C12.3762 32.1574 11.8141 32.9316 11.712 33.854L11.2036 38.4456L15.6204 38.9825V41.9997H27.379V38.9825H31.8553L31.2876 33.854Z" fill="#6AB5DD"/>
<path d="M12.9484 20.2753C12.9484 20.2753 11.8794 15.3366 11.8794 13.6374C11.8794 9.99163 14.5518 10.0167 14.5518 10.0167L14.5523 10.0162C16.0996 7.04982 22.0345 6.99951 22.0345 6.99951L22.569 8.20641C25.5087 7.15037 29.5173 6.99951 29.5173 6.99951C29.5173 6.99951 30.2856 8.20641 30.5863 10.0167C31.2093 13.7683 30.0518 20.2753 30.0518 20.2753H12.9484Z" fill="#734A3E"/>
<path d="M22.0345 6.99951C22.0345 6.99951 16.1218 6.99951 14.5523 10.0162L14.5518 10.0167C14.5518 10.0167 11.8794 9.99163 11.8794 13.6374C11.8794 15.3366 12.9484 20.2753 12.9484 20.2753H16.3982L19.8966 14.8443C19.8966 14.8443 25.286 11.7265 29.5173 6.99951C29.5173 6.99951 25.5087 7.15037 22.569 8.20641L22.0345 6.99951Z" fill="#623F33"/>
<path d="M24.7067 27.6675H18.2929V29.664C18.2929 30.0984 18.0801 30.481 17.7573 30.6943C22.2399 31.5801 24.7067 27.6675 24.7067 27.6675Z" fill="#E2A071"/>
<path d="M28.9827 19.0686V17.8617C28.9827 16.1954 27.7862 14.8445 26.3103 14.8445H16.6897C15.2138 14.8445 14.0173 16.1954 14.0173 17.8617V19.0686C13.1317 19.0686 12.4138 19.8791 12.4138 20.879C12.4138 21.8788 13.1317 22.6893 14.0173 22.6893V23.2927C14.0173 24.7544 14.7957 26.0727 15.9907 26.6349L19.4442 28.2596C20.0956 28.566 20.7943 28.7238 21.4999 28.7238C22.2056 28.7238 22.9042 28.566 23.5556 28.2596L27.0093 26.6349C28.2043 26.0727 28.9827 24.7544 28.9827 23.2927V22.6893C29.8683 22.6893 30.5862 21.8788 30.5862 20.879C30.5862 19.8791 29.8683 19.0686 28.9827 19.0686Z" fill="#FDC88E"/>
<path d="M17.7586 21.4822C17.4646 21.4822 17.2241 21.2107 17.2241 20.8788V20.2753C17.2241 19.9434 17.4646 19.6719 17.7586 19.6719C18.0526 19.6719 18.2931 19.9434 18.2931 20.2753V20.8788C18.2931 21.2107 18.0526 21.4822 17.7586 21.4822Z" fill="#623F33"/>
<path d="M25.2413 21.4822C24.9473 21.4822 24.7068 21.2107 24.7068 20.8788V20.2753C24.7068 19.9434 24.9473 19.6719 25.2413 19.6719C25.5352 19.6719 25.7758 19.9434 25.7758 20.2753V20.8788C25.7758 21.2107 25.5352 21.4822 25.2413 21.4822Z" fill="#623F33"/>
<path d="M21.4999 25.7232C20.5496 25.7232 19.6608 25.4592 19.0613 24.9987C18.8173 24.8113 18.7538 24.4359 18.9201 24.1604C19.0858 23.8853 19.4186 23.8136 19.6626 24.0011C20.0828 24.3237 20.7696 24.5164 21.4999 24.5164C22.2301 24.5164 22.917 24.3237 23.3372 24.0011C23.5817 23.8131 23.9137 23.885 24.0796 24.1604C24.2458 24.4359 24.1824 24.8113 23.9385 24.9987C23.339 25.4592 22.4501 25.7232 21.4999 25.7232Z" fill="#E2A071"/>
<path d="M15.6205 39.4378V38.0721C15.6205 37.4915 15.4352 36.9304 15.0986 36.4916L12.1576 32.6587C11.9203 32.9979 11.7614 33.4077 11.7121 33.8537L11.1538 38.8961C12.0039 38.9537 14.265 39.2528 15.6205 39.4378Z" fill="#0077B6"/>
<path d="M15.6206 38.6434L11.2154 38.0908C11.0426 38.0692 10.8871 38.2097 10.8678 38.4047L10.8193 38.8977C10.8002 39.0927 10.9246 39.2684 11.0973 39.29L15.6206 39.8575V38.6434Z" fill="#0077B6"/>
<path d="M27.3792 39.4378V38.0721C27.3792 37.4915 27.5645 36.9304 27.9011 36.4916L30.8421 32.6587C31.0794 32.9979 31.2382 33.4077 31.2876 33.8537L31.8459 38.8961C30.9959 38.9537 28.7347 39.2528 27.3792 39.4378Z" fill="#0077B6"/>
<path d="M27.3792 38.6434L31.7843 38.0908C31.9571 38.0692 32.1127 38.2097 32.1319 38.4047L32.1804 38.8977C32.1996 39.0927 32.0751 39.2684 31.9024 39.29L27.3792 39.8575V38.6434Z" fill="#0077B6"/>
<path d="M18.055 29.8294L19.8964 32.9479L18.293 35.3617L16.155 30.5341L17.3138 29.662C17.5594 29.4771 17.8912 29.552 18.055 29.8294Z" fill="#0077B6"/>
<path d="M24.9448 29.8294L23.1033 32.9479L24.7067 35.3617L26.8446 30.5341L25.6859 29.662C25.4403 29.4771 25.1085 29.552 24.9448 29.8294Z" fill="#0077B6"/>
<path d="M21.5001 38.9824C21.2049 38.9824 20.9656 38.7122 20.9656 38.3789V34.1548H22.0345V38.3789C22.0345 38.7122 21.7953 38.9824 21.5001 38.9824Z" fill="#0077B6"/>
<path d="M16.823 25.384C16.39 24.8597 16.1553 24.168 16.1553 23.4511V16.5271C18.0331 16.2917 22.1237 15.7308 26.3104 14.8445H16.6897C16.5057 14.8445 16.3275 14.8687 16.1552 14.9109V14.9053C14.9354 15.1849 14.0173 16.4021 14.0173 17.8617V19.0686C13.1317 19.0686 12.4138 19.8791 12.4138 20.879C12.4138 21.8788 13.1317 22.6893 14.0173 22.6893V23.2927C14.0173 24.7544 14.7957 26.0727 15.9907 26.6349L19.4441 28.2596C19.6131 28.3391 19.7857 28.4076 19.9604 28.4669C18.4341 27.2064 17.4182 26.1044 16.823 25.384Z" fill="#F6B47B"/>
</g>
<defs>
<clipPath id="clip0_6_1488">
<rect width="31" height="35" fill="white" transform="translate(6 7)"/>
</clipPath>
</defs>
</svg>
